<svg xmlns="http://www.w3.org/2000/svg" fill="#ffffff" viewBox="0 0 48 48" width="24px" height="24px"><path d="M 32.970703 5.9726562 A 2.0002 2.0002 0 0 0 31 8 L 31 35.171875 L 27.414062 31.585938 A 2.0002 2.0002 0 1 0 24.585938 34.414062 L 31.585938 41.414062 A 2.0002 2.0002 0 0 0 34.414062 41.414062 L 41.414062 34.414062 A 2.0002 2.0002 0 1 0 38.585938 31.585938 L 35 35.171875 L 35 8 A 2.0002 2.0002 0 0 0 32.970703 5.9726562 z M 14.375 8.0058594 C 14.257547 8.01575 14.139641 8.0379219 14.025391 8.0761719 L 11.025391 9.0761719 C 10.239391 9.3381719 9.8141719 10.188609 10.076172 10.974609 C 10.338172 11.760609 11.190609 12.188828 11.974609 11.923828 L 13 11.580078 L 13 20.5 C 13 21.329 13.671 22 14.5 22 C 15.329 22 16 21.329 16 20.5 L 16 9.5 C 16 9.018 15.767953 8.5652031 15.376953 8.2832031 C 15.082953 8.0717031 14.727359 7.9761875 14.375 8.0058594 z M 14 27 C 11.344 27 9.387625 28.682109 9.015625 31.287109 C 8.898625 32.107109 9.4671094 32.867375 10.287109 32.984375 C 11.106109 33.102375 11.867375 32.533891 11.984375 31.712891 C 12.096375 30.931891 12.537 30 14 30 C 15.103 30 16 30.897 16 32 C 16 33.103 15.103 34 14 34 C 11.592 34 9 35.721 9 39.5 C 9 40.329 9.672 41 10.5 41 L 17.5 41 C 18.329 41 19 40.329 19 39.5 C 19 38.671 18.329 38 17.5 38 L 12.308594 38 C 12.781594 37.093 13.664 37 14 37 C 16.757 37 19 34.757 19 32 C 19 29.243 16.757 27 14 27 z"/></svg>