<svg xmlns="http://www.w3.org/2000/svg" fill="#ffffff" viewBox="0 0 48 48" width="24px" height="24px"><path d="M 32.970703 5.9726562 A 2.0002 2.0002 0 0 0 31 8 L 31 35.171875 L 27.414062 31.585938 A 2.0002 2.0002 0 1 0 24.585938 34.414062 L 31.585938 41.414062 A 2.0002 2.0002 0 0 0 34.414062 41.414062 L 41.414062 34.414062 A 2.0002 2.0002 0 1 0 38.585938 31.585938 L 35 35.171875 L 35 8 A 2.0002 2.0002 0 0 0 32.970703 5.9726562 z M 13.050781 8 C 10.394781 8 8.4384063 9.6821094 8.0664062 12.287109 C 7.9494063 13.107109 8.5198437 13.867375 9.3398438 13.984375 C 10.158844 14.102375 10.918156 13.533891 11.035156 12.712891 C 11.147156 11.931891 11.587781 11 13.050781 11 C 14.153781 11 15.050781 11.897 15.050781 13 C 15.050781 14.103 14.153781 15 13.050781 15 C 10.642781 15 8.0507812 16.721 8.0507812 20.5 C 8.0507812 21.329 8.7217812 22 9.5507812 22 L 16.550781 22 C 17.379781 22 18.050781 21.329 18.050781 20.5 C 18.050781 19.671 17.379781 19 16.550781 19 L 11.359375 19 C 11.832375 18.093 12.714781 18 13.050781 18 C 15.807781 18 18.050781 15.757 18.050781 13 C 18.050781 10.243 15.807781 8 13.050781 8 z M 13.425781 27.005859 C 13.308328 27.01575 13.190422 27.037922 13.076172 27.076172 L 10.076172 28.076172 C 9.2901719 28.338172 8.8669062 29.188609 9.1289062 29.974609 C 9.3909062 30.760609 10.241391 31.188828 11.025391 30.923828 L 12.050781 30.580078 L 12.050781 39.5 C 12.050781 40.329 12.721781 41 13.550781 41 C 14.379781 41 15.050781 40.329 15.050781 39.5 L 15.050781 28.5 C 15.050781 28.018 14.818734 27.565203 14.427734 27.283203 C 14.133734 27.071703 13.778141 26.976187 13.425781 27.005859 z"/></svg>